<mxfile host="app.diagrams.net" modified="2023-11-06T09:44:07.292Z" agent="Mozilla/5.0 (Windows NT 10.0; Win64; x64) AppleWebKit/537.36 (KHTML, like Gecko) Chrome/118.0.0.0 Safari/537.36" etag="EDBQh0LkvHPphXAvaBbU" version="22.0.8" type="device">
  <diagram name="Page-1" id="9f46799a-70d6-7492-0946-bef42562c5a5">
    <mxGraphModel dx="1838" dy="1065" grid="1" gridSize="10" guides="1" tooltips="1" connect="1" arrows="1" fold="1" page="1" pageScale="1" pageWidth="1100" pageHeight="850" background="none" math="0" shadow="0">
      <root>
        <mxCell id="0" />
        <mxCell id="1" parent="0" />
        <mxCell id="ZU_0qnk7MYpzfpRTQc3B-1" value="Gendernix" style="shape=umlFrame;whiteSpace=wrap;html=1;pointerEvents=0;recursiveResize=0;container=1;collapsible=0;width=160;" parent="1" vertex="1">
          <mxGeometry width="1100" height="850" as="geometry" />
        </mxCell>
        <mxCell id="ZU_0qnk7MYpzfpRTQc3B-69" style="edgeStyle=orthogonalEdgeStyle;rounded=0;orthogonalLoop=1;jettySize=auto;html=1;entryX=0.5;entryY=0.992;entryDx=0;entryDy=0;entryPerimeter=0;dashed=1;endArrow=block;endFill=1;" parent="ZU_0qnk7MYpzfpRTQc3B-1" source="ZU_0qnk7MYpzfpRTQc3B-13" target="ZU_0qnk7MYpzfpRTQc3B-8" edge="1">
          <mxGeometry relative="1" as="geometry">
            <Array as="points">
              <mxPoint x="170" y="630" />
              <mxPoint x="170" y="630" />
            </Array>
          </mxGeometry>
        </mxCell>
        <mxCell id="ZU_0qnk7MYpzfpRTQc3B-13" value="StaticTextProvider" style="swimlane;fontStyle=1;align=center;verticalAlign=top;childLayout=stackLayout;horizontal=1;startSize=26;horizontalStack=0;resizeParent=1;resizeParentMax=0;resizeLast=0;collapsible=1;marginBottom=0;whiteSpace=wrap;html=1;" parent="ZU_0qnk7MYpzfpRTQc3B-1" vertex="1">
          <mxGeometry x="80" y="690" width="180" height="100" as="geometry" />
        </mxCell>
        <mxCell id="ZU_0qnk7MYpzfpRTQc3B-14" value="# titles: List&amp;lt;string&amp;gt;&lt;br&gt;# texts: List&amp;lt;string&amp;gt;" style="text;strokeColor=none;fillColor=none;align=left;verticalAlign=top;spacingLeft=4;spacingRight=4;overflow=hidden;rotatable=0;points=[[0,0.5],[1,0.5]];portConstraint=eastwest;whiteSpace=wrap;html=1;" parent="ZU_0qnk7MYpzfpRTQc3B-13" vertex="1">
          <mxGeometry y="26" width="180" height="44" as="geometry" />
        </mxCell>
        <mxCell id="ZU_0qnk7MYpzfpRTQc3B-15" value="" style="line;strokeWidth=1;fillColor=none;align=left;verticalAlign=middle;spacingTop=-1;spacingLeft=3;spacingRight=3;rotatable=0;labelPosition=right;points=[];portConstraint=eastwest;strokeColor=inherit;" parent="ZU_0qnk7MYpzfpRTQc3B-13" vertex="1">
          <mxGeometry y="70" width="180" height="8" as="geometry" />
        </mxCell>
        <mxCell id="ZU_0qnk7MYpzfpRTQc3B-16" value="&amp;nbsp;" style="text;strokeColor=none;fillColor=none;align=left;verticalAlign=top;spacingLeft=4;spacingRight=4;overflow=hidden;rotatable=0;points=[[0,0.5],[1,0.5]];portConstraint=eastwest;whiteSpace=wrap;html=1;" parent="ZU_0qnk7MYpzfpRTQc3B-13" vertex="1">
          <mxGeometry y="78" width="180" height="22" as="geometry" />
        </mxCell>
        <mxCell id="ZU_0qnk7MYpzfpRTQc3B-30" value="&amp;lt;&amp;lt;interface&amp;gt;&amp;gt; IXSSProtector" style="swimlane;fontStyle=1;align=center;verticalAlign=top;childLayout=stackLayout;horizontal=1;startSize=26;horizontalStack=0;resizeParent=1;resizeParentMax=0;resizeLast=0;collapsible=1;marginBottom=0;whiteSpace=wrap;html=1;" parent="ZU_0qnk7MYpzfpRTQc3B-1" vertex="1">
          <mxGeometry x="60" y="170" width="180" height="100" as="geometry" />
        </mxCell>
        <mxCell id="ZU_0qnk7MYpzfpRTQc3B-31" value="&amp;nbsp;" style="text;strokeColor=none;fillColor=none;align=left;verticalAlign=top;spacingLeft=4;spacingRight=4;overflow=hidden;rotatable=0;points=[[0,0.5],[1,0.5]];portConstraint=eastwest;whiteSpace=wrap;html=1;" parent="ZU_0qnk7MYpzfpRTQc3B-30" vertex="1">
          <mxGeometry y="26" width="180" height="24" as="geometry" />
        </mxCell>
        <mxCell id="ZU_0qnk7MYpzfpRTQc3B-32" value="" style="line;strokeWidth=1;fillColor=none;align=left;verticalAlign=middle;spacingTop=-1;spacingLeft=3;spacingRight=3;rotatable=0;labelPosition=right;points=[];portConstraint=eastwest;strokeColor=inherit;" parent="ZU_0qnk7MYpzfpRTQc3B-30" vertex="1">
          <mxGeometry y="50" width="180" height="8" as="geometry" />
        </mxCell>
        <mxCell id="ZU_0qnk7MYpzfpRTQc3B-33" value="+ checkText(text:string): bool&lt;br&gt;+ correctText(test:string): string" style="text;strokeColor=none;fillColor=none;align=left;verticalAlign=top;spacingLeft=4;spacingRight=4;overflow=hidden;rotatable=0;points=[[0,0.5],[1,0.5]];portConstraint=eastwest;whiteSpace=wrap;html=1;" parent="ZU_0qnk7MYpzfpRTQc3B-30" vertex="1">
          <mxGeometry y="58" width="180" height="42" as="geometry" />
        </mxCell>
        <mxCell id="ZU_0qnk7MYpzfpRTQc3B-72" style="edgeStyle=orthogonalEdgeStyle;rounded=0;orthogonalLoop=1;jettySize=auto;html=1;entryX=0.5;entryY=1;entryDx=0;entryDy=0;entryPerimeter=0;dashed=1;endArrow=block;endFill=1;" parent="ZU_0qnk7MYpzfpRTQc3B-1" source="ZU_0qnk7MYpzfpRTQc3B-34" target="ZU_0qnk7MYpzfpRTQc3B-33" edge="1">
          <mxGeometry relative="1" as="geometry" />
        </mxCell>
        <mxCell id="ZU_0qnk7MYpzfpRTQc3B-34" value="XSSProtector" style="swimlane;fontStyle=1;align=center;verticalAlign=top;childLayout=stackLayout;horizontal=1;startSize=26;horizontalStack=0;resizeParent=1;resizeParentMax=0;resizeLast=0;collapsible=1;marginBottom=0;whiteSpace=wrap;html=1;" parent="ZU_0qnk7MYpzfpRTQc3B-1" vertex="1">
          <mxGeometry x="60" y="335" width="180" height="80" as="geometry" />
        </mxCell>
        <mxCell id="ZU_0qnk7MYpzfpRTQc3B-35" value="&amp;nbsp;" style="text;strokeColor=none;fillColor=none;align=left;verticalAlign=top;spacingLeft=4;spacingRight=4;overflow=hidden;rotatable=0;points=[[0,0.5],[1,0.5]];portConstraint=eastwest;whiteSpace=wrap;html=1;" parent="ZU_0qnk7MYpzfpRTQc3B-34" vertex="1">
          <mxGeometry y="26" width="180" height="24" as="geometry" />
        </mxCell>
        <mxCell id="ZU_0qnk7MYpzfpRTQc3B-36" value="" style="line;strokeWidth=1;fillColor=none;align=left;verticalAlign=middle;spacingTop=-1;spacingLeft=3;spacingRight=3;rotatable=0;labelPosition=right;points=[];portConstraint=eastwest;strokeColor=inherit;" parent="ZU_0qnk7MYpzfpRTQc3B-34" vertex="1">
          <mxGeometry y="50" width="180" height="8" as="geometry" />
        </mxCell>
        <mxCell id="ZU_0qnk7MYpzfpRTQc3B-37" value="&amp;nbsp;" style="text;strokeColor=none;fillColor=none;align=left;verticalAlign=top;spacingLeft=4;spacingRight=4;overflow=hidden;rotatable=0;points=[[0,0.5],[1,0.5]];portConstraint=eastwest;whiteSpace=wrap;html=1;" parent="ZU_0qnk7MYpzfpRTQc3B-34" vertex="1">
          <mxGeometry y="58" width="180" height="22" as="geometry" />
        </mxCell>
        <mxCell id="ZU_0qnk7MYpzfpRTQc3B-38" value="&amp;lt;&amp;lt;interface&amp;gt;&amp;gt; ITextPostProcessor" style="swimlane;fontStyle=1;align=center;verticalAlign=top;childLayout=stackLayout;horizontal=1;startSize=26;horizontalStack=0;resizeParent=1;resizeParentMax=0;resizeLast=0;collapsible=1;marginBottom=0;whiteSpace=wrap;html=1;" parent="ZU_0qnk7MYpzfpRTQc3B-1" vertex="1">
          <mxGeometry x="865" y="180" width="210" height="90" as="geometry" />
        </mxCell>
        <mxCell id="ZU_0qnk7MYpzfpRTQc3B-39" value="&amp;nbsp;" style="text;strokeColor=none;fillColor=none;align=left;verticalAlign=top;spacingLeft=4;spacingRight=4;overflow=hidden;rotatable=0;points=[[0,0.5],[1,0.5]];portConstraint=eastwest;whiteSpace=wrap;html=1;" parent="ZU_0qnk7MYpzfpRTQc3B-38" vertex="1">
          <mxGeometry y="26" width="210" height="24" as="geometry" />
        </mxCell>
        <mxCell id="ZU_0qnk7MYpzfpRTQc3B-40" value="" style="line;strokeWidth=1;fillColor=none;align=left;verticalAlign=middle;spacingTop=-1;spacingLeft=3;spacingRight=3;rotatable=0;labelPosition=right;points=[];portConstraint=eastwest;strokeColor=inherit;" parent="ZU_0qnk7MYpzfpRTQc3B-38" vertex="1">
          <mxGeometry y="50" width="210" height="8" as="geometry" />
        </mxCell>
        <mxCell id="ZU_0qnk7MYpzfpRTQc3B-41" value="+ postProcess(test:string):string&lt;br&gt;" style="text;strokeColor=none;fillColor=none;align=left;verticalAlign=top;spacingLeft=4;spacingRight=4;overflow=hidden;rotatable=0;points=[[0,0.5],[1,0.5]];portConstraint=eastwest;whiteSpace=wrap;html=1;" parent="ZU_0qnk7MYpzfpRTQc3B-38" vertex="1">
          <mxGeometry y="58" width="210" height="32" as="geometry" />
        </mxCell>
        <mxCell id="ZU_0qnk7MYpzfpRTQc3B-70" style="edgeStyle=orthogonalEdgeStyle;rounded=0;orthogonalLoop=1;jettySize=auto;html=1;dashed=1;endArrow=block;endFill=1;" parent="ZU_0qnk7MYpzfpRTQc3B-1" source="ZU_0qnk7MYpzfpRTQc3B-46" edge="1">
          <mxGeometry relative="1" as="geometry">
            <mxPoint x="970" y="270" as="targetPoint" />
            <Array as="points">
              <mxPoint x="970" y="269" />
            </Array>
          </mxGeometry>
        </mxCell>
        <mxCell id="ZU_0qnk7MYpzfpRTQc3B-71" style="edgeStyle=orthogonalEdgeStyle;rounded=0;orthogonalLoop=1;jettySize=auto;html=1;entryX=0.5;entryY=0;entryDx=0;entryDy=0;dashed=1;endArrow=open;endFill=0;" parent="ZU_0qnk7MYpzfpRTQc3B-1" source="ZU_0qnk7MYpzfpRTQc3B-46" target="ZU_0qnk7MYpzfpRTQc3B-51" edge="1">
          <mxGeometry relative="1" as="geometry" />
        </mxCell>
        <mxCell id="ZU_0qnk7MYpzfpRTQc3B-46" value="TextPostProcessor" style="swimlane;fontStyle=1;align=center;verticalAlign=top;childLayout=stackLayout;horizontal=1;startSize=26;horizontalStack=0;resizeParent=1;resizeParentMax=0;resizeLast=0;collapsible=1;marginBottom=0;whiteSpace=wrap;html=1;" parent="ZU_0qnk7MYpzfpRTQc3B-1" vertex="1">
          <mxGeometry x="870" y="330" width="200" height="90" as="geometry" />
        </mxCell>
        <mxCell id="ZU_0qnk7MYpzfpRTQc3B-47" value="&amp;nbsp;" style="text;strokeColor=none;fillColor=none;align=left;verticalAlign=top;spacingLeft=4;spacingRight=4;overflow=hidden;rotatable=0;points=[[0,0.5],[1,0.5]];portConstraint=eastwest;whiteSpace=wrap;html=1;" parent="ZU_0qnk7MYpzfpRTQc3B-46" vertex="1">
          <mxGeometry y="26" width="200" height="24" as="geometry" />
        </mxCell>
        <mxCell id="ZU_0qnk7MYpzfpRTQc3B-48" value="" style="line;strokeWidth=1;fillColor=none;align=left;verticalAlign=middle;spacingTop=-1;spacingLeft=3;spacingRight=3;rotatable=0;labelPosition=right;points=[];portConstraint=eastwest;strokeColor=inherit;" parent="ZU_0qnk7MYpzfpRTQc3B-46" vertex="1">
          <mxGeometry y="50" width="200" height="8" as="geometry" />
        </mxCell>
        <mxCell id="ZU_0qnk7MYpzfpRTQc3B-49" value="+&amp;nbsp;useMiddleware(ITTPMiddleware)" style="text;strokeColor=none;fillColor=none;align=left;verticalAlign=top;spacingLeft=4;spacingRight=4;overflow=hidden;rotatable=0;points=[[0,0.5],[1,0.5]];portConstraint=eastwest;whiteSpace=wrap;html=1;" parent="ZU_0qnk7MYpzfpRTQc3B-46" vertex="1">
          <mxGeometry y="58" width="200" height="32" as="geometry" />
        </mxCell>
        <mxCell id="ZU_0qnk7MYpzfpRTQc3B-51" value="&amp;lt;&amp;lt;interface&amp;gt;&amp;gt; ITPPMiddleware" style="swimlane;fontStyle=1;align=center;verticalAlign=top;childLayout=stackLayout;horizontal=1;startSize=26;horizontalStack=0;resizeParent=1;resizeParentMax=0;resizeLast=0;collapsible=1;marginBottom=0;whiteSpace=wrap;html=1;" parent="ZU_0qnk7MYpzfpRTQc3B-1" vertex="1">
          <mxGeometry x="850" y="470" width="250" height="100" as="geometry" />
        </mxCell>
        <mxCell id="ZU_0qnk7MYpzfpRTQc3B-52" value="+ next:ITTPMiddleware" style="text;strokeColor=none;fillColor=none;align=left;verticalAlign=top;spacingLeft=4;spacingRight=4;overflow=hidden;rotatable=0;points=[[0,0.5],[1,0.5]];portConstraint=eastwest;whiteSpace=wrap;html=1;" parent="ZU_0qnk7MYpzfpRTQc3B-51" vertex="1">
          <mxGeometry y="26" width="250" height="34" as="geometry" />
        </mxCell>
        <mxCell id="ZU_0qnk7MYpzfpRTQc3B-53" value="" style="line;strokeWidth=1;fillColor=none;align=left;verticalAlign=middle;spacingTop=-1;spacingLeft=3;spacingRight=3;rotatable=0;labelPosition=right;points=[];portConstraint=eastwest;strokeColor=inherit;" parent="ZU_0qnk7MYpzfpRTQc3B-51" vertex="1">
          <mxGeometry y="60" width="250" height="8" as="geometry" />
        </mxCell>
        <mxCell id="ZU_0qnk7MYpzfpRTQc3B-54" value="+ postProcess(context: TPPContext): string" style="text;strokeColor=none;fillColor=none;align=left;verticalAlign=top;spacingLeft=4;spacingRight=4;overflow=hidden;rotatable=0;points=[[0,0.5],[1,0.5]];portConstraint=eastwest;whiteSpace=wrap;html=1;" parent="ZU_0qnk7MYpzfpRTQc3B-51" vertex="1">
          <mxGeometry y="68" width="250" height="32" as="geometry" />
        </mxCell>
        <mxCell id="ZU_0qnk7MYpzfpRTQc3B-56" value="XSSMiddleware" style="swimlane;fontStyle=1;align=center;verticalAlign=top;childLayout=stackLayout;horizontal=1;startSize=26;horizontalStack=0;resizeParent=1;resizeParentMax=0;resizeLast=0;collapsible=1;marginBottom=0;whiteSpace=wrap;html=1;" parent="ZU_0qnk7MYpzfpRTQc3B-1" vertex="1">
          <mxGeometry x="880" y="620" width="180" height="80" as="geometry" />
        </mxCell>
        <mxCell id="ZU_0qnk7MYpzfpRTQc3B-57" value="# xssProtector: IXSSProtector" style="text;strokeColor=none;fillColor=none;align=left;verticalAlign=top;spacingLeft=4;spacingRight=4;overflow=hidden;rotatable=0;points=[[0,0.5],[1,0.5]];portConstraint=eastwest;whiteSpace=wrap;html=1;" parent="ZU_0qnk7MYpzfpRTQc3B-56" vertex="1">
          <mxGeometry y="26" width="180" height="24" as="geometry" />
        </mxCell>
        <mxCell id="ZU_0qnk7MYpzfpRTQc3B-58" value="" style="line;strokeWidth=1;fillColor=none;align=left;verticalAlign=middle;spacingTop=-1;spacingLeft=3;spacingRight=3;rotatable=0;labelPosition=right;points=[];portConstraint=eastwest;strokeColor=inherit;" parent="ZU_0qnk7MYpzfpRTQc3B-56" vertex="1">
          <mxGeometry y="50" width="180" height="8" as="geometry" />
        </mxCell>
        <mxCell id="ZU_0qnk7MYpzfpRTQc3B-59" value="&amp;nbsp;" style="text;strokeColor=none;fillColor=none;align=left;verticalAlign=top;spacingLeft=4;spacingRight=4;overflow=hidden;rotatable=0;points=[[0,0.5],[1,0.5]];portConstraint=eastwest;whiteSpace=wrap;html=1;" parent="ZU_0qnk7MYpzfpRTQc3B-56" vertex="1">
          <mxGeometry y="58" width="180" height="22" as="geometry" />
        </mxCell>
        <mxCell id="ZU_0qnk7MYpzfpRTQc3B-60" value="WordSplittingMiddleware" style="swimlane;fontStyle=1;align=center;verticalAlign=top;childLayout=stackLayout;horizontal=1;startSize=26;horizontalStack=0;resizeParent=1;resizeParentMax=0;resizeLast=0;collapsible=1;marginBottom=0;whiteSpace=wrap;html=1;" parent="ZU_0qnk7MYpzfpRTQc3B-1" vertex="1">
          <mxGeometry x="880" y="750" width="180" height="80" as="geometry" />
        </mxCell>
        <mxCell id="ZU_0qnk7MYpzfpRTQc3B-61" value="&amp;nbsp;" style="text;strokeColor=none;fillColor=none;align=left;verticalAlign=top;spacingLeft=4;spacingRight=4;overflow=hidden;rotatable=0;points=[[0,0.5],[1,0.5]];portConstraint=eastwest;whiteSpace=wrap;html=1;" parent="ZU_0qnk7MYpzfpRTQc3B-60" vertex="1">
          <mxGeometry y="26" width="180" height="24" as="geometry" />
        </mxCell>
        <mxCell id="ZU_0qnk7MYpzfpRTQc3B-62" value="" style="line;strokeWidth=1;fillColor=none;align=left;verticalAlign=middle;spacingTop=-1;spacingLeft=3;spacingRight=3;rotatable=0;labelPosition=right;points=[];portConstraint=eastwest;strokeColor=inherit;" parent="ZU_0qnk7MYpzfpRTQc3B-60" vertex="1">
          <mxGeometry y="50" width="180" height="8" as="geometry" />
        </mxCell>
        <mxCell id="ZU_0qnk7MYpzfpRTQc3B-63" value="&amp;nbsp;" style="text;strokeColor=none;fillColor=none;align=left;verticalAlign=top;spacingLeft=4;spacingRight=4;overflow=hidden;rotatable=0;points=[[0,0.5],[1,0.5]];portConstraint=eastwest;whiteSpace=wrap;html=1;" parent="ZU_0qnk7MYpzfpRTQc3B-60" vertex="1">
          <mxGeometry y="58" width="180" height="22" as="geometry" />
        </mxCell>
        <mxCell id="ZU_0qnk7MYpzfpRTQc3B-87" style="edgeStyle=orthogonalEdgeStyle;rounded=0;orthogonalLoop=1;jettySize=auto;html=1;entryX=0;entryY=0.25;entryDx=0;entryDy=0;dashed=1;endArrow=open;endFill=0;" parent="ZU_0qnk7MYpzfpRTQc3B-1" source="ZU_0qnk7MYpzfpRTQc3B-26" target="ZU_0qnk7MYpzfpRTQc3B-46" edge="1">
          <mxGeometry relative="1" as="geometry">
            <Array as="points">
              <mxPoint x="730" y="450" />
              <mxPoint x="730" y="352" />
            </Array>
          </mxGeometry>
        </mxCell>
        <mxCell id="ZU_0qnk7MYpzfpRTQc3B-26" value="IOCContainer" style="swimlane;fontStyle=1;align=center;verticalAlign=top;childLayout=stackLayout;horizontal=1;startSize=26;horizontalStack=0;resizeParent=1;resizeParentMax=0;resizeLast=0;collapsible=1;marginBottom=0;whiteSpace=wrap;html=1;" parent="ZU_0qnk7MYpzfpRTQc3B-1" vertex="1">
          <mxGeometry x="395" y="390" width="310" height="120" as="geometry" />
        </mxCell>
        <mxCell id="ZU_0qnk7MYpzfpRTQc3B-27" value="+ instance: IOCContainer" style="text;strokeColor=none;fillColor=none;align=left;verticalAlign=top;spacingLeft=4;spacingRight=4;overflow=hidden;rotatable=0;points=[[0,0.5],[1,0.5]];portConstraint=eastwest;whiteSpace=wrap;html=1;" parent="ZU_0qnk7MYpzfpRTQc3B-26" vertex="1">
          <mxGeometry y="26" width="310" height="24" as="geometry" />
        </mxCell>
        <mxCell id="ZU_0qnk7MYpzfpRTQc3B-28" value="" style="line;strokeWidth=1;fillColor=none;align=left;verticalAlign=middle;spacingTop=-1;spacingLeft=3;spacingRight=3;rotatable=0;labelPosition=right;points=[];portConstraint=eastwest;strokeColor=inherit;" parent="ZU_0qnk7MYpzfpRTQc3B-26" vertex="1">
          <mxGeometry y="50" width="310" height="8" as="geometry" />
        </mxCell>
        <mxCell id="ZU_0qnk7MYpzfpRTQc3B-29" value="+ registerSingelton(id:string, object:object): void&lt;br&gt;+ registerTransient(id:string, construct:(()=&amp;gt;object)): void&lt;br&gt;+ resolve(id:string): object" style="text;strokeColor=none;fillColor=none;align=left;verticalAlign=top;spacingLeft=4;spacingRight=4;overflow=hidden;rotatable=0;points=[[0,0.5],[1,0.5]];portConstraint=eastwest;whiteSpace=wrap;html=1;" parent="ZU_0qnk7MYpzfpRTQc3B-26" vertex="1">
          <mxGeometry y="58" width="310" height="62" as="geometry" />
        </mxCell>
        <mxCell id="ZU_0qnk7MYpzfpRTQc3B-5" value="&amp;lt;&amp;lt;interface&amp;gt;&amp;gt; ITextProvider" style="swimlane;fontStyle=1;align=center;verticalAlign=top;childLayout=stackLayout;horizontal=1;startSize=26;horizontalStack=0;resizeParent=1;resizeParentMax=0;resizeLast=0;collapsible=1;marginBottom=0;whiteSpace=wrap;html=1;" parent="ZU_0qnk7MYpzfpRTQc3B-1" vertex="1">
          <mxGeometry x="50" y="500" width="240" height="120" as="geometry" />
        </mxCell>
        <mxCell id="ZU_0qnk7MYpzfpRTQc3B-6" value="+ textIds: List&amp;lt;string&amp;gt;" style="text;strokeColor=none;fillColor=none;align=left;verticalAlign=top;spacingLeft=4;spacingRight=4;overflow=hidden;rotatable=0;points=[[0,0.5],[1,0.5]];portConstraint=eastwest;whiteSpace=wrap;html=1;" parent="ZU_0qnk7MYpzfpRTQc3B-5" vertex="1">
          <mxGeometry y="26" width="240" height="26" as="geometry" />
        </mxCell>
        <mxCell id="ZU_0qnk7MYpzfpRTQc3B-7" value="" style="line;strokeWidth=1;fillColor=none;align=left;verticalAlign=middle;spacingTop=-1;spacingLeft=3;spacingRight=3;rotatable=0;labelPosition=right;points=[];portConstraint=eastwest;strokeColor=inherit;" parent="ZU_0qnk7MYpzfpRTQc3B-5" vertex="1">
          <mxGeometry y="52" width="240" height="8" as="geometry" />
        </mxCell>
        <mxCell id="ZU_0qnk7MYpzfpRTQc3B-8" value="+ getTitle(textId:string): string&lt;br&gt;+ getText(textId:string): string&lt;br&gt;+ getText(textId:string, length:num): string" style="text;strokeColor=none;fillColor=none;align=left;verticalAlign=top;spacingLeft=4;spacingRight=4;overflow=hidden;rotatable=0;points=[[0,0.5],[1,0.5]];portConstraint=eastwest;whiteSpace=wrap;html=1;" parent="ZU_0qnk7MYpzfpRTQc3B-5" vertex="1">
          <mxGeometry y="60" width="240" height="60" as="geometry" />
        </mxCell>
        <mxCell id="ZU_0qnk7MYpzfpRTQc3B-64" style="edgeStyle=orthogonalEdgeStyle;rounded=0;orthogonalLoop=1;jettySize=auto;html=1;dashed=1;endArrow=open;endFill=0;" parent="ZU_0qnk7MYpzfpRTQc3B-1" source="ZU_0qnk7MYpzfpRTQc3B-9" target="ZU_0qnk7MYpzfpRTQc3B-26" edge="1">
          <mxGeometry relative="1" as="geometry">
            <Array as="points">
              <mxPoint x="325" y="350" />
              <mxPoint x="470" y="350" />
            </Array>
          </mxGeometry>
        </mxCell>
        <mxCell id="ZU_0qnk7MYpzfpRTQc3B-74" style="edgeStyle=orthogonalEdgeStyle;rounded=0;orthogonalLoop=1;jettySize=auto;html=1;dashed=1;endArrow=open;endFill=0;" parent="ZU_0qnk7MYpzfpRTQc3B-1" source="ZU_0qnk7MYpzfpRTQc3B-9" edge="1">
          <mxGeometry relative="1" as="geometry">
            <mxPoint x="1010" y="180" as="targetPoint" />
            <Array as="points">
              <mxPoint x="300" y="10" />
              <mxPoint x="1010" y="10" />
            </Array>
          </mxGeometry>
        </mxCell>
        <mxCell id="ZU_0qnk7MYpzfpRTQc3B-9" value="ViewModelOnlineTool" style="swimlane;fontStyle=1;align=center;verticalAlign=top;childLayout=stackLayout;horizontal=1;startSize=26;horizontalStack=0;resizeParent=1;resizeParentMax=0;resizeLast=0;collapsible=1;marginBottom=0;whiteSpace=wrap;html=1;" parent="ZU_0qnk7MYpzfpRTQc3B-1" vertex="1">
          <mxGeometry x="230" y="40" width="190" height="90" as="geometry" />
        </mxCell>
        <mxCell id="ZU_0qnk7MYpzfpRTQc3B-10" value="+ lastEditedText: string" style="text;strokeColor=none;fillColor=none;align=left;verticalAlign=top;spacingLeft=4;spacingRight=4;overflow=hidden;rotatable=0;points=[[0,0.5],[1,0.5]];portConstraint=eastwest;whiteSpace=wrap;html=1;" parent="ZU_0qnk7MYpzfpRTQc3B-9" vertex="1">
          <mxGeometry y="26" width="190" height="26" as="geometry" />
        </mxCell>
        <mxCell id="ZU_0qnk7MYpzfpRTQc3B-11" value="" style="line;strokeWidth=1;fillColor=none;align=left;verticalAlign=middle;spacingTop=-1;spacingLeft=3;spacingRight=3;rotatable=0;labelPosition=right;points=[];portConstraint=eastwest;strokeColor=inherit;" parent="ZU_0qnk7MYpzfpRTQc3B-9" vertex="1">
          <mxGeometry y="52" width="190" height="8" as="geometry" />
        </mxCell>
        <mxCell id="ZU_0qnk7MYpzfpRTQc3B-12" value="+ editText(text:string)" style="text;strokeColor=none;fillColor=none;align=left;verticalAlign=top;spacingLeft=4;spacingRight=4;overflow=hidden;rotatable=0;points=[[0,0.5],[1,0.5]];portConstraint=eastwest;whiteSpace=wrap;html=1;" parent="ZU_0qnk7MYpzfpRTQc3B-9" vertex="1">
          <mxGeometry y="60" width="190" height="30" as="geometry" />
        </mxCell>
        <mxCell id="ZU_0qnk7MYpzfpRTQc3B-65" style="edgeStyle=orthogonalEdgeStyle;rounded=0;orthogonalLoop=1;jettySize=auto;html=1;entryX=0.5;entryY=0;entryDx=0;entryDy=0;dashed=1;endArrow=open;endFill=0;" parent="ZU_0qnk7MYpzfpRTQc3B-1" source="ZU_0qnk7MYpzfpRTQc3B-17" target="ZU_0qnk7MYpzfpRTQc3B-26" edge="1">
          <mxGeometry relative="1" as="geometry">
            <Array as="points">
              <mxPoint x="550" y="230" />
              <mxPoint x="550" y="230" />
            </Array>
          </mxGeometry>
        </mxCell>
        <mxCell id="ZU_0qnk7MYpzfpRTQc3B-17" value="ViewModelText" style="swimlane;fontStyle=1;align=center;verticalAlign=top;childLayout=stackLayout;horizontal=1;startSize=26;horizontalStack=0;resizeParent=1;resizeParentMax=0;resizeLast=0;collapsible=1;marginBottom=0;whiteSpace=wrap;html=1;" parent="ZU_0qnk7MYpzfpRTQc3B-1" vertex="1">
          <mxGeometry x="460" y="40" width="180" height="138" as="geometry" />
        </mxCell>
        <mxCell id="ZU_0qnk7MYpzfpRTQc3B-18" value="+ textId: string&lt;br&gt;+ title: string&lt;br style=&quot;border-color: var(--border-color);&quot;&gt;+ text: string" style="text;strokeColor=none;fillColor=none;align=left;verticalAlign=top;spacingLeft=4;spacingRight=4;overflow=hidden;rotatable=0;points=[[0,0.5],[1,0.5]];portConstraint=eastwest;whiteSpace=wrap;html=1;" parent="ZU_0qnk7MYpzfpRTQc3B-17" vertex="1">
          <mxGeometry y="26" width="180" height="54" as="geometry" />
        </mxCell>
        <mxCell id="ZU_0qnk7MYpzfpRTQc3B-19" value="" style="line;strokeWidth=1;fillColor=none;align=left;verticalAlign=middle;spacingTop=-1;spacingLeft=3;spacingRight=3;rotatable=0;labelPosition=right;points=[];portConstraint=eastwest;strokeColor=inherit;" parent="ZU_0qnk7MYpzfpRTQc3B-17" vertex="1">
          <mxGeometry y="80" width="180" height="8" as="geometry" />
        </mxCell>
        <mxCell id="ZU_0qnk7MYpzfpRTQc3B-20" value="-" style="text;strokeColor=none;fillColor=none;align=left;verticalAlign=top;spacingLeft=4;spacingRight=4;overflow=hidden;rotatable=0;points=[[0,0.5],[1,0.5]];portConstraint=eastwest;whiteSpace=wrap;html=1;" parent="ZU_0qnk7MYpzfpRTQc3B-17" vertex="1">
          <mxGeometry y="88" width="180" height="50" as="geometry" />
        </mxCell>
        <mxCell id="ZU_0qnk7MYpzfpRTQc3B-66" style="edgeStyle=orthogonalEdgeStyle;rounded=0;orthogonalLoop=1;jettySize=auto;html=1;entryX=0.75;entryY=0;entryDx=0;entryDy=0;dashed=1;endArrow=open;endFill=0;" parent="ZU_0qnk7MYpzfpRTQc3B-1" source="ZU_0qnk7MYpzfpRTQc3B-21" target="ZU_0qnk7MYpzfpRTQc3B-26" edge="1">
          <mxGeometry relative="1" as="geometry">
            <Array as="points">
              <mxPoint x="760" y="270" />
              <mxPoint x="628" y="270" />
            </Array>
          </mxGeometry>
        </mxCell>
        <mxCell id="ZU_0qnk7MYpzfpRTQc3B-21" value="ViewModelTextSearch" style="swimlane;fontStyle=1;align=center;verticalAlign=top;childLayout=stackLayout;horizontal=1;startSize=26;horizontalStack=0;resizeParent=1;resizeParentMax=0;resizeLast=0;collapsible=1;marginBottom=0;whiteSpace=wrap;html=1;" parent="ZU_0qnk7MYpzfpRTQc3B-1" vertex="1">
          <mxGeometry x="680" y="40" width="210" height="120" as="geometry" />
        </mxCell>
        <mxCell id="ZU_0qnk7MYpzfpRTQc3B-22" value="+ textIds: List&amp;lt;string&amp;gt;&lt;br style=&quot;border-color: var(--border-color);&quot;&gt;+ titles: List&amp;lt;string&amp;gt;&lt;br style=&quot;border-color: var(--border-color);&quot;&gt;+ subTexts: List&amp;lt;string&amp;gt;" style="text;strokeColor=none;fillColor=none;align=left;verticalAlign=top;spacingLeft=4;spacingRight=4;overflow=hidden;rotatable=0;points=[[0,0.5],[1,0.5]];portConstraint=eastwest;whiteSpace=wrap;html=1;" parent="ZU_0qnk7MYpzfpRTQc3B-21" vertex="1">
          <mxGeometry y="26" width="210" height="54" as="geometry" />
        </mxCell>
        <mxCell id="ZU_0qnk7MYpzfpRTQc3B-23" value="" style="line;strokeWidth=1;fillColor=none;align=left;verticalAlign=middle;spacingTop=-1;spacingLeft=3;spacingRight=3;rotatable=0;labelPosition=right;points=[];portConstraint=eastwest;strokeColor=inherit;" parent="ZU_0qnk7MYpzfpRTQc3B-21" vertex="1">
          <mxGeometry y="80" width="210" height="8" as="geometry" />
        </mxCell>
        <mxCell id="ZU_0qnk7MYpzfpRTQc3B-24" value="+ search(query:string): vooid" style="text;strokeColor=none;fillColor=none;align=left;verticalAlign=top;spacingLeft=4;spacingRight=4;overflow=hidden;rotatable=0;points=[[0,0.5],[1,0.5]];portConstraint=eastwest;whiteSpace=wrap;html=1;" parent="ZU_0qnk7MYpzfpRTQc3B-21" vertex="1">
          <mxGeometry y="88" width="210" height="32" as="geometry" />
        </mxCell>
        <mxCell id="ZU_0qnk7MYpzfpRTQc3B-67" style="edgeStyle=orthogonalEdgeStyle;rounded=0;orthogonalLoop=1;jettySize=auto;html=1;dashed=1;endArrow=block;endFill=1;entryX=0.502;entryY=1.029;entryDx=0;entryDy=0;entryPerimeter=0;exitX=0.5;exitY=0;exitDx=0;exitDy=0;" parent="ZU_0qnk7MYpzfpRTQc3B-1" source="ZU_0qnk7MYpzfpRTQc3B-56" target="ZU_0qnk7MYpzfpRTQc3B-54" edge="1">
          <mxGeometry relative="1" as="geometry">
            <mxPoint x="970" y="570" as="sourcePoint" />
            <mxPoint x="800" y="480" as="targetPoint" />
            <Array as="points" />
          </mxGeometry>
        </mxCell>
        <mxCell id="ZU_0qnk7MYpzfpRTQc3B-68" style="edgeStyle=orthogonalEdgeStyle;rounded=0;orthogonalLoop=1;jettySize=auto;html=1;dashed=1;endArrow=block;endFill=1;entryX=0.788;entryY=1.082;entryDx=0;entryDy=0;exitX=0.5;exitY=0;exitDx=0;exitDy=0;entryPerimeter=0;" parent="ZU_0qnk7MYpzfpRTQc3B-1" source="ZU_0qnk7MYpzfpRTQc3B-60" target="ZU_0qnk7MYpzfpRTQc3B-54" edge="1">
          <mxGeometry relative="1" as="geometry">
            <mxPoint x="740" y="480" as="targetPoint" />
            <Array as="points">
              <mxPoint x="970" y="730" />
              <mxPoint x="1080" y="730" />
              <mxPoint x="1080" y="600" />
              <mxPoint x="1040" y="600" />
              <mxPoint x="1040" y="573" />
            </Array>
          </mxGeometry>
        </mxCell>
        <mxCell id="ZU_0qnk7MYpzfpRTQc3B-73" style="edgeStyle=orthogonalEdgeStyle;rounded=0;orthogonalLoop=1;jettySize=auto;html=1;dashed=1;endArrow=open;endFill=0;" parent="ZU_0qnk7MYpzfpRTQc3B-1" source="ZU_0qnk7MYpzfpRTQc3B-10" target="ZU_0qnk7MYpzfpRTQc3B-30" edge="1">
          <mxGeometry relative="1" as="geometry" />
        </mxCell>
        <mxCell id="ZU_0qnk7MYpzfpRTQc3B-76" style="edgeStyle=orthogonalEdgeStyle;rounded=0;orthogonalLoop=1;jettySize=auto;html=1;dashed=1;endArrow=open;endFill=0;entryX=0.944;entryY=0;entryDx=0;entryDy=0;entryPerimeter=0;" parent="ZU_0qnk7MYpzfpRTQc3B-1" source="ZU_0qnk7MYpzfpRTQc3B-20" target="ZU_0qnk7MYpzfpRTQc3B-30" edge="1">
          <mxGeometry relative="1" as="geometry">
            <mxPoint x="210" y="170" as="targetPoint" />
            <Array as="points">
              <mxPoint x="230" y="150" />
            </Array>
          </mxGeometry>
        </mxCell>
        <mxCell id="ZU_0qnk7MYpzfpRTQc3B-77" style="edgeStyle=orthogonalEdgeStyle;rounded=0;orthogonalLoop=1;jettySize=auto;html=1;dashed=1;endArrow=open;endFill=0;" parent="ZU_0qnk7MYpzfpRTQc3B-1" source="ZU_0qnk7MYpzfpRTQc3B-20" target="ZU_0qnk7MYpzfpRTQc3B-5" edge="1">
          <mxGeometry relative="1" as="geometry">
            <Array as="points">
              <mxPoint x="280" y="170" />
            </Array>
          </mxGeometry>
        </mxCell>
        <mxCell id="ZU_0qnk7MYpzfpRTQc3B-78" style="edgeStyle=orthogonalEdgeStyle;rounded=0;orthogonalLoop=1;jettySize=auto;html=1;dashed=1;endArrow=open;endFill=0;exitX=0.75;exitY=0;exitDx=0;exitDy=0;" parent="ZU_0qnk7MYpzfpRTQc3B-1" source="ZU_0qnk7MYpzfpRTQc3B-17" target="ZU_0qnk7MYpzfpRTQc3B-38" edge="1">
          <mxGeometry relative="1" as="geometry">
            <mxPoint x="886" y="180" as="targetPoint" />
            <Array as="points">
              <mxPoint x="595" y="30" />
              <mxPoint x="990" y="30" />
            </Array>
          </mxGeometry>
        </mxCell>
        <mxCell id="ZU_0qnk7MYpzfpRTQc3B-79" style="edgeStyle=orthogonalEdgeStyle;rounded=0;orthogonalLoop=1;jettySize=auto;html=1;dashed=1;endArrow=open;endFill=0;" parent="ZU_0qnk7MYpzfpRTQc3B-1" source="ZU_0qnk7MYpzfpRTQc3B-23" target="ZU_0qnk7MYpzfpRTQc3B-38" edge="1">
          <mxGeometry relative="1" as="geometry" />
        </mxCell>
        <mxCell id="ZU_0qnk7MYpzfpRTQc3B-80" style="edgeStyle=orthogonalEdgeStyle;rounded=0;orthogonalLoop=1;jettySize=auto;html=1;dashed=1;endArrow=open;endFill=0;" parent="ZU_0qnk7MYpzfpRTQc3B-1" source="ZU_0qnk7MYpzfpRTQc3B-24" edge="1">
          <mxGeometry relative="1" as="geometry">
            <mxPoint x="240" y="210" as="targetPoint" />
            <Array as="points">
              <mxPoint x="720" y="210" />
            </Array>
          </mxGeometry>
        </mxCell>
        <mxCell id="ZU_0qnk7MYpzfpRTQc3B-81" style="edgeStyle=orthogonalEdgeStyle;rounded=0;orthogonalLoop=1;jettySize=auto;html=1;dashed=1;endArrow=open;endFill=0;" parent="ZU_0qnk7MYpzfpRTQc3B-1" source="ZU_0qnk7MYpzfpRTQc3B-24" edge="1">
          <mxGeometry relative="1" as="geometry">
            <mxPoint x="290" y="570" as="targetPoint" />
            <Array as="points">
              <mxPoint x="790" y="570" />
            </Array>
          </mxGeometry>
        </mxCell>
        <mxCell id="ZU_0qnk7MYpzfpRTQc3B-82" style="edgeStyle=orthogonalEdgeStyle;rounded=0;orthogonalLoop=1;jettySize=auto;html=1;dashed=1;endArrow=open;endFill=0;exitX=-0.005;exitY=0.078;exitDx=0;exitDy=0;exitPerimeter=0;" parent="ZU_0qnk7MYpzfpRTQc3B-1" source="ZU_0qnk7MYpzfpRTQc3B-29" target="ZU_0qnk7MYpzfpRTQc3B-33" edge="1">
          <mxGeometry relative="1" as="geometry">
            <mxPoint x="520" y="390" as="sourcePoint" />
            <Array as="points">
              <mxPoint x="40" y="453" />
              <mxPoint x="40" y="249" />
            </Array>
          </mxGeometry>
        </mxCell>
        <mxCell id="ZU_0qnk7MYpzfpRTQc3B-83" style="edgeStyle=orthogonalEdgeStyle;rounded=0;orthogonalLoop=1;jettySize=auto;html=1;entryX=1;entryY=0.5;entryDx=0;entryDy=0;dashed=1;endArrow=open;endFill=0;exitX=0.11;exitY=0.003;exitDx=0;exitDy=0;exitPerimeter=0;" parent="ZU_0qnk7MYpzfpRTQc3B-1" source="ZU_0qnk7MYpzfpRTQc3B-26" target="ZU_0qnk7MYpzfpRTQc3B-35" edge="1">
          <mxGeometry relative="1" as="geometry">
            <Array as="points">
              <mxPoint x="429" y="373" />
            </Array>
          </mxGeometry>
        </mxCell>
        <mxCell id="ZU_0qnk7MYpzfpRTQc3B-84" style="edgeStyle=orthogonalEdgeStyle;rounded=0;orthogonalLoop=1;jettySize=auto;html=1;entryX=1;entryY=0.5;entryDx=0;entryDy=0;dashed=1;endArrow=open;endFill=0;" parent="ZU_0qnk7MYpzfpRTQc3B-1" source="ZU_0qnk7MYpzfpRTQc3B-29" target="ZU_0qnk7MYpzfpRTQc3B-14" edge="1">
          <mxGeometry relative="1" as="geometry">
            <Array as="points">
              <mxPoint x="480" y="738" />
            </Array>
          </mxGeometry>
        </mxCell>
        <mxCell id="ZU_0qnk7MYpzfpRTQc3B-85" style="edgeStyle=orthogonalEdgeStyle;rounded=0;orthogonalLoop=1;jettySize=auto;html=1;dashed=1;endArrow=open;endFill=0;" parent="ZU_0qnk7MYpzfpRTQc3B-1" source="ZU_0qnk7MYpzfpRTQc3B-29" edge="1">
          <mxGeometry relative="1" as="geometry">
            <mxPoint x="290" y="550" as="targetPoint" />
            <Array as="points">
              <mxPoint x="440" y="550" />
              <mxPoint x="290" y="550" />
            </Array>
          </mxGeometry>
        </mxCell>
        <mxCell id="ZU_0qnk7MYpzfpRTQc3B-86" style="edgeStyle=orthogonalEdgeStyle;rounded=0;orthogonalLoop=1;jettySize=auto;html=1;entryX=0.118;entryY=1.041;entryDx=0;entryDy=0;dashed=1;endArrow=open;endFill=0;exitX=0.952;exitY=0;exitDx=0;exitDy=0;exitPerimeter=0;entryPerimeter=0;" parent="ZU_0qnk7MYpzfpRTQc3B-1" source="ZU_0qnk7MYpzfpRTQc3B-26" target="ZU_0qnk7MYpzfpRTQc3B-41" edge="1">
          <mxGeometry relative="1" as="geometry">
            <mxPoint x="690" y="379.99" as="sourcePoint" />
            <mxPoint x="865" y="243.99" as="targetPoint" />
            <Array as="points">
              <mxPoint x="690" y="310" />
              <mxPoint x="890" y="310" />
            </Array>
          </mxGeometry>
        </mxCell>
        <mxCell id="ZU_0qnk7MYpzfpRTQc3B-90" style="edgeStyle=orthogonalEdgeStyle;rounded=0;orthogonalLoop=1;jettySize=auto;html=1;entryX=0;entryY=0.5;entryDx=0;entryDy=0;dashed=1;endArrow=open;endFill=0;" parent="ZU_0qnk7MYpzfpRTQc3B-1" edge="1">
          <mxGeometry relative="1" as="geometry">
            <mxPoint x="870" y="400" as="sourcePoint" />
            <mxPoint x="880" y="648" as="targetPoint" />
            <Array as="points">
              <mxPoint x="840" y="400" />
              <mxPoint x="840" y="648" />
            </Array>
          </mxGeometry>
        </mxCell>
        <mxCell id="ZU_0qnk7MYpzfpRTQc3B-91" style="edgeStyle=orthogonalEdgeStyle;rounded=0;orthogonalLoop=1;jettySize=auto;html=1;dashed=1;endArrow=open;endFill=0;exitX=-0.016;exitY=-0.103;exitDx=0;exitDy=0;exitPerimeter=0;" parent="ZU_0qnk7MYpzfpRTQc3B-1" source="ZU_0qnk7MYpzfpRTQc3B-49" edge="1">
          <mxGeometry relative="1" as="geometry">
            <Array as="points">
              <mxPoint x="830" y="385" />
              <mxPoint x="830" y="800" />
              <mxPoint x="880" y="800" />
            </Array>
            <mxPoint x="880" y="800" as="targetPoint" />
          </mxGeometry>
        </mxCell>
        <mxCell id="c9XSxr_6pPcAF-A2jEfO-1" value="SplittingMiddleware" style="swimlane;fontStyle=1;align=center;verticalAlign=top;childLayout=stackLayout;horizontal=1;startSize=26;horizontalStack=0;resizeParent=1;resizeParentMax=0;resizeLast=0;collapsible=1;marginBottom=0;whiteSpace=wrap;html=1;" vertex="1" parent="ZU_0qnk7MYpzfpRTQc3B-1">
          <mxGeometry x="485" y="750" width="220" height="80" as="geometry" />
        </mxCell>
        <mxCell id="c9XSxr_6pPcAF-A2jEfO-2" value="&lt;span style=&quot;color: rgb(0, 0, 0); font-family: Helvetica; font-size: 12px; font-style: normal; font-variant-ligatures: normal; font-variant-caps: normal; font-weight: 400; letter-spacing: normal; orphans: 2; text-align: left; text-indent: 0px; text-transform: none; widows: 2; word-spacing: 0px; -webkit-text-stroke-width: 0px; background-color: rgb(251, 251, 251); text-decoration-thickness: initial; text-decoration-style: initial; text-decoration-color: initial; float: none; display: inline !important;&quot;&gt;+ dictionary: Dictionary&amp;lt;string, string&amp;gt;&amp;nbsp;&lt;/span&gt;&lt;br&gt;" style="text;strokeColor=none;fillColor=none;align=left;verticalAlign=top;spacingLeft=4;spacingRight=4;overflow=hidden;rotatable=0;points=[[0,0.5],[1,0.5]];portConstraint=eastwest;whiteSpace=wrap;html=1;" vertex="1" parent="c9XSxr_6pPcAF-A2jEfO-1">
          <mxGeometry y="26" width="220" height="24" as="geometry" />
        </mxCell>
        <mxCell id="c9XSxr_6pPcAF-A2jEfO-3" value="" style="line;strokeWidth=1;fillColor=none;align=left;verticalAlign=middle;spacingTop=-1;spacingLeft=3;spacingRight=3;rotatable=0;labelPosition=right;points=[];portConstraint=eastwest;strokeColor=inherit;" vertex="1" parent="c9XSxr_6pPcAF-A2jEfO-1">
          <mxGeometry y="50" width="220" height="8" as="geometry" />
        </mxCell>
        <mxCell id="c9XSxr_6pPcAF-A2jEfO-4" value="&amp;nbsp;" style="text;strokeColor=none;fillColor=none;align=left;verticalAlign=top;spacingLeft=4;spacingRight=4;overflow=hidden;rotatable=0;points=[[0,0.5],[1,0.5]];portConstraint=eastwest;whiteSpace=wrap;html=1;" vertex="1" parent="c9XSxr_6pPcAF-A2jEfO-1">
          <mxGeometry y="58" width="220" height="22" as="geometry" />
        </mxCell>
        <mxCell id="c9XSxr_6pPcAF-A2jEfO-6" style="edgeStyle=orthogonalEdgeStyle;rounded=0;orthogonalLoop=1;jettySize=auto;html=1;dashed=1;endArrow=block;endFill=1;" edge="1" parent="ZU_0qnk7MYpzfpRTQc3B-1" source="c9XSxr_6pPcAF-A2jEfO-1">
          <mxGeometry relative="1" as="geometry">
            <mxPoint x="870" y="571" as="targetPoint" />
            <Array as="points">
              <mxPoint x="595" y="600" />
              <mxPoint x="870" y="600" />
              <mxPoint x="870" y="571" />
            </Array>
          </mxGeometry>
        </mxCell>
        <mxCell id="c9XSxr_6pPcAF-A2jEfO-9" style="edgeStyle=orthogonalEdgeStyle;rounded=0;orthogonalLoop=1;jettySize=auto;html=1;dashed=1;endArrow=open;endFill=0;" edge="1" parent="ZU_0qnk7MYpzfpRTQc3B-1" source="ZU_0qnk7MYpzfpRTQc3B-47">
          <mxGeometry relative="1" as="geometry">
            <mxPoint x="570" y="751" as="targetPoint" />
            <Array as="points">
              <mxPoint x="810" y="368" />
              <mxPoint x="810" y="580" />
              <mxPoint x="570" y="580" />
              <mxPoint x="570" y="751" />
            </Array>
          </mxGeometry>
        </mxCell>
        <mxCell id="c9XSxr_6pPcAF-A2jEfO-14" value="TPPContext" style="swimlane;fontStyle=1;align=center;verticalAlign=top;childLayout=stackLayout;horizontal=1;startSize=26;horizontalStack=0;resizeParent=1;resizeParentMax=0;resizeLast=0;collapsible=1;marginBottom=0;whiteSpace=wrap;html=1;" vertex="1" parent="ZU_0qnk7MYpzfpRTQc3B-1">
          <mxGeometry x="620" y="630" width="190" height="78" as="geometry" />
        </mxCell>
        <mxCell id="c9XSxr_6pPcAF-A2jEfO-15" value="+ text: string&lt;br&gt;+ data: Dictionary&amp;lt;string, object&amp;gt;" style="text;strokeColor=none;fillColor=none;align=left;verticalAlign=top;spacingLeft=4;spacingRight=4;overflow=hidden;rotatable=0;points=[[0,0.5],[1,0.5]];portConstraint=eastwest;whiteSpace=wrap;html=1;" vertex="1" parent="c9XSxr_6pPcAF-A2jEfO-14">
          <mxGeometry y="26" width="190" height="44" as="geometry" />
        </mxCell>
        <mxCell id="c9XSxr_6pPcAF-A2jEfO-16" value="" style="line;strokeWidth=1;fillColor=none;align=left;verticalAlign=middle;spacingTop=-1;spacingLeft=3;spacingRight=3;rotatable=0;labelPosition=right;points=[];portConstraint=eastwest;strokeColor=inherit;" vertex="1" parent="c9XSxr_6pPcAF-A2jEfO-14">
          <mxGeometry y="70" width="190" height="8" as="geometry" />
        </mxCell>
        <mxCell id="c9XSxr_6pPcAF-A2jEfO-18" style="edgeStyle=orthogonalEdgeStyle;rounded=0;orthogonalLoop=1;jettySize=auto;html=1;dashed=1;endArrow=open;endFill=0;" edge="1" parent="ZU_0qnk7MYpzfpRTQc3B-1" source="ZU_0qnk7MYpzfpRTQc3B-54" target="c9XSxr_6pPcAF-A2jEfO-14">
          <mxGeometry relative="1" as="geometry">
            <Array as="points">
              <mxPoint x="880" y="610" />
              <mxPoint x="800" y="610" />
            </Array>
          </mxGeometry>
        </mxCell>
      </root>
    </mxGraphModel>
  </diagram>
</mxfile>
